<?xml version="1.0" encoding="UTF-8" standalone="no"?>
<!DOCTYPE svg PUBLIC "-//W3C//DTD SVG 1.1//EN" "http://www.w3.org/Graphics/SVG/1.1/DTD/svg11.dtd">
<svg width="100%" height="100%" viewBox="0 0 1200 768" version="1.1" xmlns="http://www.w3.org/2000/svg" xmlns:xlink="http://www.w3.org/1999/xlink" xml:space="preserve" xmlns:serif="http://www.serif.com/" style="fill-rule:evenodd;clip-rule:evenodd;stroke-linejoin:round;stroke-miterlimit:2;">
    <g id="Layer-1" serif:id="Layer 1">
        <g transform="matrix(830.709,-697.09,-697.09,-830.709,177.64,738.423)">
            <path d="M0.595,0.39C0.439,0.52 0.21,0.505 0.085,0.356C-0.041,0.206 -0.016,-0.022 0.14,-0.153L0.422,-0.39C0.577,-0.52 0.807,-0.505 0.932,-0.356C1.057,-0.206 1.033,0.022 0.877,0.153L0.595,0.39Z" style="fill:url(#_Linear1);fill-rule:nonzero;"/>
        </g>
        <g transform="matrix(0,-1,-1,0,435.197,166.045)">
            <path d="M-50.559,-50.561C-101.386,-50.561 -142.582,-27.924 -142.582,0C-142.582,27.924 -101.386,50.559 -50.559,50.559C0.262,50.559 41.463,27.924 41.463,0C41.463,-27.924 0.262,-50.561 -50.559,-50.561" style="fill:rgb(0,36,59);fill-rule:nonzero;"/>
        </g>
        <g transform="matrix(1,0,0,1,435.195,241.796)">
            <path d="M0,16.444C-23.12,16.444 -42.604,-11.817 -48.625,-50.387C-49.878,-42.375 -50.558,-33.933 -50.558,-25.192C-50.558,25.635 -27.921,66.831 0,66.831C27.926,66.831 50.563,25.635 50.563,-25.192C50.563,-33.933 49.883,-42.375 48.629,-50.387C42.607,-11.817 23.125,16.444 0,16.444" style="fill:rgb(0,25,43);fill-rule:nonzero;"/>
        </g>
        <g transform="matrix(0,-1,-1,0,462.54,159.331)">
            <path d="M-9.013,-9.007C-13.987,-9.007 -18.02,-4.97 -18.02,0.004C-18.02,4.979 -13.987,9.013 -9.013,9.013C-4.035,9.013 0,4.979 0,0.004C0,-4.97 -4.035,-9.007 -9.013,-9.007" style="fill:rgb(0,57,79);fill-rule:nonzero;"/>
        </g>
        <g transform="matrix(0,-1,-1,0,453.529,143.25)">
            <path d="M-4.595,-4.589C-7.129,-4.589 -9.183,-2.533 -9.183,0.002C-9.183,2.536 -7.129,4.595 -4.595,4.595C-2.061,4.595 -0.002,2.536 -0.002,0.002C-0.002,-2.533 -2.061,-4.589 -4.595,-4.589" style="fill:rgb(0,57,79);fill-rule:nonzero;"/>
        </g>
        <g transform="matrix(0,-1,-1,0,755.172,166.043)">
            <path d="M-50.561,-50.562C-101.388,-50.562 -142.584,-27.925 -142.584,-0.001C-142.584,27.922 -101.388,50.561 -50.561,50.561C0.26,50.561 41.461,27.922 41.461,-0.001C41.461,-27.925 0.26,-50.562 -50.561,-50.562" style="fill:rgb(0,36,59);fill-rule:nonzero;"/>
        </g>
        <g transform="matrix(1,0,0,1,755.174,241.796)">
            <path d="M0,16.444C-23.122,16.444 -42.604,-11.817 -48.627,-50.387C-49.878,-42.375 -50.563,-33.933 -50.563,-25.192C-50.563,25.635 -27.924,66.831 0,66.831C27.927,66.831 50.561,25.635 50.561,-25.192C50.561,-33.933 49.878,-42.375 48.629,-50.387C42.606,-11.817 23.125,16.444 0,16.444" style="fill:rgb(0,25,43);fill-rule:nonzero;"/>
        </g>
        <g transform="matrix(0,-1,-1,0,782.517,159.333)">
            <path d="M-9.011,-9.006C-13.985,-9.006 -18.019,-4.973 -18.019,0.005C-18.019,4.976 -13.985,9.011 -9.011,9.011C-4.033,9.011 0.002,4.976 0.002,0.005C0.002,-4.973 -4.033,-9.006 -9.011,-9.006" style="fill:rgb(0,57,79);fill-rule:nonzero;"/>
        </g>
        <g transform="matrix(0,-1,-1,0,773.508,143.251)">
            <path d="M-4.594,-4.589C-7.128,-4.589 -9.182,-2.53 -9.182,0.001C-9.182,2.538 -7.128,4.594 -4.594,4.594C-2.06,4.594 -0.001,2.538 -0.001,0.001C-0.001,-2.53 -2.06,-4.589 -4.594,-4.589" style="fill:rgb(0,57,79);fill-rule:nonzero;"/>
        </g>
        <g transform="matrix(1,0,0,1,595.191,412.493)">
            <path d="M0,209.801C-166.818,209.801 -302.864,107.347 -309.97,-21.124C-310.163,-17.62 -310.284,-14.106 -310.284,-10.563C-310.284,122.807 -171.367,230.925 0,230.925C171.358,230.925 310.272,122.807 310.272,-10.563C310.272,-14.106 310.152,-17.62 309.959,-21.124C302.855,107.347 166.81,209.801 0,209.801" style="fill:rgb(0,36,59);fill-rule:nonzero;"/>
        </g>
        <g transform="matrix(1,0,0,1,284.908,383.177)">
            <path d="M0,7.356C-9.554,7.356 -17.471,1.96 -19.041,-5.132C-19.224,-4.292 -19.339,-3.439 -19.339,-2.567C-19.339,5.751 -10.681,12.488 0,12.488C10.683,12.488 19.339,5.751 19.339,-2.567C19.339,-3.439 19.229,-4.292 19.041,-5.132C17.468,1.96 9.557,7.356 0,7.356" style="fill:rgb(0,36,59);fill-rule:nonzero;"/>
        </g>
        <g transform="matrix(1,0,0,1,905.461,383.177)">
            <path d="M0,7.356C-9.558,7.356 -17.473,1.96 -19.04,-5.132C-19.224,-4.292 -19.341,-3.439 -19.341,-2.567C-19.341,5.751 -10.683,12.488 0,12.488C10.686,12.488 19.339,5.751 19.339,-2.567C19.339,-3.439 19.224,-4.292 19.044,-5.132C17.474,1.96 9.557,7.356 0,7.356" style="fill:rgb(0,36,59);fill-rule:nonzero;"/>
        </g>
        <g transform="matrix(0,-1,-1,0,297.29,258.997)">
            <path d="M-62.73,-62.73C-77.718,-62.73 -89.868,-34.645 -89.868,0C-89.868,34.644 -77.718,62.73 -62.73,62.73C-47.742,62.73 -35.591,34.644 -35.591,0C-35.591,-34.645 -47.742,-62.73 -62.73,-62.73" style="fill:rgb(0,148,68);fill-rule:nonzero;"/>
        </g>
        <g transform="matrix(0,-1,-1,0,902.71,258.997)">
            <path d="M-62.73,-62.73C-77.718,-62.73 -89.868,-34.645 -89.868,0C-89.868,34.645 -77.718,62.73 -62.73,62.73C-47.742,62.73 -35.591,34.645 -35.591,0C-35.591,-34.645 -47.742,-62.73 -62.73,-62.73" style="fill:rgb(0,148,68);fill-rule:nonzero;"/>
        </g>
    </g>
    <defs>
        <linearGradient id="_Linear1" x1="0" y1="0" x2="1" y2="0" gradientUnits="userSpaceOnUse" gradientTransform="matrix(1,0,0,-1,0,-6.14328e-07)"><stop offset="0" style="stop-color:rgb(171,255,92);stop-opacity:1"/><stop offset="1" style="stop-color:rgb(57,181,74);stop-opacity:1"/></linearGradient>
    </defs>
</svg>
