<?xml version="1.0" encoding="UTF-8" standalone="no"?>
<!DOCTYPE svg PUBLIC "-//W3C//DTD SVG 1.1//EN" "http://www.w3.org/Graphics/SVG/1.1/DTD/svg11.dtd">
<svg width="100%" height="100%" viewBox="0 0 1024 1024" version="1.1" xmlns="http://www.w3.org/2000/svg" xmlns:xlink="http://www.w3.org/1999/xlink" xml:space="preserve" xmlns:serif="http://www.serif.com/" style="fill-rule:evenodd;clip-rule:evenodd;stroke-linejoin:round;stroke-miterlimit:2;">
    <g id="Layer-1" serif:id="Layer 1">
        <g transform="matrix(972.292,-815.899,-815.899,-972.292,17.6546,926.83)">
            <path d="M0.579,0.467C0.513,0.523 0.413,0.514 0.357,0.448L0.041,0.071C-0.014,0.005 -0.006,-0.095 0.061,-0.151L0.437,-0.467C0.504,-0.523 0.604,-0.514 0.659,-0.448L0.975,-0.071C1.031,-0.005 1.022,0.095 0.956,0.151L0.579,0.467Z" style="fill:url(#_Linear1);fill-rule:nonzero;"/>
        </g>
        <g transform="matrix(0,-1,-1,0,337.479,274.245)">
            <path d="M-55.152,-55.154C-110.596,-55.154 -155.535,-30.462 -155.535,-0.001C-155.535,30.461 -110.596,55.152 -55.152,55.152C0.286,55.152 45.229,30.461 45.229,-0.001C45.229,-30.462 0.286,-55.154 -55.152,-55.154" style="fill:rgb(0,36,59);fill-rule:nonzero;"/>
        </g>
        <g transform="matrix(1,0,0,1,337.477,356.877)">
            <path d="M0,17.938C-25.22,17.938 -46.475,-12.89 -53.042,-54.965C-54.409,-46.224 -55.15,-37.016 -55.15,-27.479C-55.15,27.964 -30.458,72.903 0,72.903C30.463,72.903 55.156,27.964 55.156,-27.479C55.156,-37.016 54.415,-46.224 53.047,-54.965C46.478,-12.89 25.225,17.938 0,17.938" style="fill:rgb(0,25,43);fill-rule:nonzero;"/>
        </g>
        <g transform="matrix(0,-1,-1,0,367.306,266.921)">
            <path d="M-9.832,-9.826C-15.258,-9.826 -19.659,-5.423 -19.659,0.004C-19.659,5.43 -15.258,9.832 -9.832,9.832C-4.403,9.832 0.001,5.43 0.001,0.004C0.001,-5.423 -4.403,-9.826 -9.832,-9.826" style="fill:rgb(0,57,79);fill-rule:nonzero;"/>
        </g>
        <g transform="matrix(0,-1,-1,0,357.476,249.38)">
            <path d="M-5.012,-5.006C-7.776,-5.006 -10.016,-2.763 -10.016,0.002C-10.016,2.766 -7.776,5.012 -5.012,5.012C-2.247,5.012 -0.002,2.766 -0.002,0.002C-0.002,-2.763 -2.247,-5.006 -5.012,-5.006" style="fill:rgb(0,57,79);fill-rule:nonzero;"/>
        </g>
        <g transform="matrix(0,-1,-1,0,686.522,274.244)">
            <path d="M-55.154,-55.155C-110.598,-55.155 -155.537,-30.463 -155.537,-0.002C-155.537,30.459 -110.598,55.154 -55.154,55.154C0.284,55.154 45.228,30.459 45.228,-0.002C45.228,-30.463 0.284,-55.155 -55.154,-55.155" style="fill:rgb(0,36,59);fill-rule:nonzero;"/>
        </g>
        <g transform="matrix(1,0,0,1,686.523,356.877)">
            <path d="M0,17.938C-25.223,17.938 -46.475,-12.89 -53.044,-54.965C-54.409,-46.224 -55.155,-37.016 -55.155,-27.479C-55.155,27.964 -30.461,72.903 0,72.903C30.464,72.903 55.153,27.964 55.153,-27.479C55.153,-37.016 54.409,-46.224 53.047,-54.965C46.478,-12.89 25.226,17.938 0,17.938" style="fill:rgb(0,25,43);fill-rule:nonzero;"/>
        </g>
        <g transform="matrix(0,-1,-1,0,716.352,266.923)">
            <path d="M-9.83,-9.824C-15.256,-9.824 -19.657,-5.424 -19.657,0.006C-19.657,5.429 -15.256,9.83 -9.83,9.83C-4.401,9.83 0.003,5.429 0.003,0.006C0.003,-5.424 -4.401,-9.824 -9.83,-9.824" style="fill:rgb(0,57,79);fill-rule:nonzero;"/>
        </g>
        <g transform="matrix(0,-1,-1,0,706.523,249.38)">
            <path d="M-5.012,-5.006C-7.776,-5.006 -10.016,-2.76 -10.016,0.001C-10.016,2.768 -7.776,5.012 -5.012,5.012C-2.247,5.012 -0.002,2.768 -0.002,0.001C-0.002,-2.76 -2.247,-5.006 -5.012,-5.006" style="fill:rgb(0,57,79);fill-rule:nonzero;"/>
        </g>
        <g transform="matrix(1,0,0,1,512.008,543.082)">
            <path d="M0,228.86C-181.973,228.86 -330.377,117.097 -338.129,-23.042C-338.34,-19.22 -338.472,-15.388 -338.472,-11.523C-338.472,133.964 -186.935,251.902 0,251.902C186.925,251.902 338.459,133.964 338.459,-11.523C338.459,-15.388 338.328,-19.22 338.117,-23.042C330.368,117.097 181.963,228.86 0,228.86" style="fill:rgb(0,36,59);fill-rule:nonzero;"/>
        </g>
        <g transform="matrix(1,0,0,1,173.536,511.103)">
            <path d="M0,8.025C-10.422,8.025 -19.058,2.137 -20.771,-5.598C-20.97,-4.683 -21.096,-3.751 -21.096,-2.799C-21.096,6.272 -11.651,13.623 0,13.623C11.654,13.623 21.096,6.272 21.096,-2.799C21.096,-3.751 20.976,-4.683 20.771,-5.598C19.055,2.137 10.425,8.025 0,8.025" style="fill:rgb(0,36,59);fill-rule:nonzero;"/>
        </g>
        <g transform="matrix(1,0,0,1,850.464,511.103)">
            <path d="M0,8.025C-10.426,8.025 -19.061,2.137 -20.771,-5.598C-20.971,-4.683 -21.099,-3.751 -21.099,-2.799C-21.099,6.272 -11.653,13.623 0,13.623C11.656,13.623 21.096,6.272 21.096,-2.799C21.096,-3.751 20.97,-4.683 20.773,-5.598C19.061,2.137 10.425,8.025 0,8.025" style="fill:rgb(0,36,59);fill-rule:nonzero;"/>
        </g>
        <g transform="matrix(0,-1,-1,0,183.044,375.641)">
            <path d="M-68.428,-68.428C-84.778,-68.428 -98.032,-37.792 -98.032,0C-98.032,37.792 -84.778,68.428 -68.428,68.428C-52.078,68.428 -38.824,37.792 -38.824,0C-38.824,-37.792 -52.078,-68.428 -68.428,-68.428" style="fill:rgb(0,148,68);fill-rule:nonzero;"/>
        </g>
        <g transform="matrix(0,-1,-1,0,847.463,375.641)">
            <path d="M-68.428,-68.428C-84.778,-68.428 -98.032,-37.791 -98.032,0C-98.032,37.793 -84.778,68.428 -68.428,68.428C-52.078,68.428 -38.824,37.793 -38.824,0C-38.824,-37.791 -52.078,-68.428 -68.428,-68.428" style="fill:rgb(0,148,68);fill-rule:nonzero;"/>
        </g>
    </g>
    <defs>
        <linearGradient id="_Linear1" x1="0" y1="0" x2="1" y2="0" gradientUnits="userSpaceOnUse" gradientTransform="matrix(1,5.55112e-17,5.55112e-17,-1,0,-2.32868e-07)"><stop offset="0" style="stop-color:rgb(171,255,92);stop-opacity:1"/><stop offset="1" style="stop-color:rgb(57,181,74);stop-opacity:1"/></linearGradient>
    </defs>
</svg>
